{"title":"The Lego Movie 2014 CAM XViD-BL4CKP34RL","uid":9598333,"size":1497851518,"categoryP":"video","categoryS":"movies","magnet":"?xt=urn:btih:ec8b35c97190b7f8cdb7d6df000cd65e3d9cc0ba&amp;dn=The+Lego+Movie+2014+CAM+XViD-BL4CKP34RL&amp;tr=udp%3A%2F%2Ftracker.openbittorrent.com%3A80&amp;tr=udp%3A%2F%2Fopen.demonii.com%3A1337&amp;tr=udp%3A%2F%2Ftracker.coppersurfer.tk%3A6969&amp;tr=udp%3A%2F%2Fexodus.desync.com%3A6969","seeders":57,"leechers":9,"uploader":"xxxlavalxxx","files":-1,"time":1392062608,"description":" &lt;a href=&quot;\nhttp://www.imdb.com/title/tt1490017/&quot; rel=&quot;nofollow&quot; target=&quot;_NEW&quot;&gt;\nhttp://www.imdb.com/title/tt1490017/&lt;/a&gt;\n\n\nAn ordinary LEGO minifigure, mistakenly thought to be the extraordinary MasterBuilder, is recruited to join a quest to stop an evil LEGO tyrant from gluing the universe together.\n\nDirectors: Phil Lord, Christopher Miller\nWriters: Dan Hageman (story), Kevin Hageman (story), 4 more credits Â»\nStars: Will Arnett, Elizabeth Banks, Craig Berry\nGenres: Animation | Action | Comedy | Family\nCountry: Australia | USA | Denmark\nLanguage: English\n\n\n\nA Fine Release Brought to you from - BL4CKP34RL                  \n                                                \n\n******************************************************************************************\n                     The.Lego.Movie..2014.CAM.XViD-BL4CKP34RL                   \n******************************************************************************************\n\nRipper ...........: J4CKSP4RR0W          IMDB Rating.......: 8.8/10                             \nVideo Codec.......: XViD                 Release Date......: 9 February 2014\nAudio Codec.......: mp3                  Theatre Date......: 7 February 2014 \nAudio Bitrate.....: 128 kbps             Runtime...........: 1hr 33min 5sec\nSubtitles.........: na                   Language..........: ENGLISH\nResolution........: 720x320              IMDb URL..........: http://www.imdb.com/title/tt1490017/\n\n\nDETAILS:\n\n\nFormat                                   : AVI\nFormat/Info                              : Audio Video Interleave\nFile size                                : 1.37 GiB\nDuration                                 : 1h 33mn\nOverall bit rate                         : 2 109 Kbps\nWriting application                      : Lavf52.84.0\nWriting library                          : VirtualDub build 32839/release\n\nVideo\nID                                       : 0\nFormat                                   : MPEG-4 Visual\nFormat profile                           : Advanced Simple@L5\nFormat settings, BVOP                    : 2\nFormat settings, QPel                    : Yes\nFormat settings, GMC                     : No warppoints\nFormat settings, Matrix                  : Default (H.263)\nMuxing mode                              : Packed bitstream\nCodec ID                                 : XVID\nCodec ID/Hint                            : XviD\nDuration                                 : 1h 33mn\nBit rate                                 : 1 970 Kbps\nWidth                                    : 720 pixels\nHeight                                   : 320 pixels\nDisplay aspect ratio                     : 2.25:1\nFrame rate                               : 29.970 fps\nColor space                              : YUV\nChroma subsampling                       : 4:2:0\nBit depth                                : 8 bits\nScan type                                : Progressive\nCompression mode                         : Lossy\nBits/(Pixel*Frame)                       : 0.285\nStream size                              : 1.28 GiB (93%)\nWriting library                          : XviD 64\n\nAudio\nID                                       : 1\nFormat                                   : MPEG Audio\nFormat version                           : Version 1\nFormat profile                           : Layer 3\nCodec ID                                 : 55\nCodec ID/Hint                            : MP3\nDuration                                 : 1h 32mn\nBit rate mode                            : Constant\nBit rate                                 : 128 Kbps\nChannel(s)                               : 1 channel\nSampling rate                            : 44.1 KHz\nCompression mode                         : Lossy\nStream size                              : 84.7 MiB (6%)\nAlignment                                : Split accross interleaves\nInterleave, duration                     : 34 ms (1.01 video frame)\nWriting library                          : LAME3.99r\nEncoding settings                        : -m m -V 4 -q 2 -lowpass 20.5 -b 128\n\n\n\n\n\n\nSOURCES:\n\n\n\nVIDEO: ............. lego.2014.TSHQ.LATINO ...thanks  \nAUDIO: ............. a friend  ...thanks \n\nNOTES:\n\nTook the decent Latino TS gave it a crop, resize, denoise and few minor adjustments then just synced and muxed the nice CAM audio we got passed..\n\nDOES HAVE occasional watermark on vid and it does have a glare to it in parts that we tried to reduce as much as possible without makin movie to dark.\n\n\n\n\nscreens\n &lt;a href=&quot;\nhttp://i.imgur.com/swAxeuC.jpg&quot; rel=&quot;nofollow&quot; target=&quot;_NEW&quot;&gt;\nhttp://i.imgur.com/swAxeuC.jpg&lt;/a&gt; &lt;a href=&quot;\nhttp://i.imgur.com/sV3Av8m.jpg&quot; rel=&quot;nofollow&quot; target=&quot;_NEW&quot;&gt;\nhttp://i.imgur.com/sV3Av8m.jpg&lt;/a&gt; &lt;a href=&quot;\nhttp://i.imgur.com/OmXcZeU.jpg&quot; rel=&quot;nofollow&quot; target=&quot;_NEW&quot;&gt;\nhttp://i.imgur.com/OmXcZeU.jpg&lt;/a&gt; &lt;a href=&quot;\nhttp://i.imgur.com/chAlCGX.jpg&quot; rel=&quot;nofollow&quot; target=&quot;_NEW&quot;&gt;\nhttp://i.imgur.com/chAlCGX.jpg&lt;/a&gt; &lt;a href=&quot;\nhttp://i.imgur.com/3hx1omF.jpg&quot; rel=&quot;nofollow&quot; target=&quot;_NEW&quot;&gt;\nhttp://i.imgur.com/3hx1omF.jpg&lt;/a&gt;","torrent":{"xt":"urn:btih:ec8b35c97190b7f8cdb7d6df000cd65e3d9cc0ba","amp;dn":"The+Lego+Movie+2014+CAM+XViD-BL4CKP34RL","amp;tr":["udp%3A%2F%2Ftracker.openbittorrent.com%3A80","udp%3A%2F%2Fopen.demonii.com%3A1337","udp%3A%2F%2Ftracker.coppersurfer.tk%3A6969","udp%3A%2F%2Fexodus.desync.com%3A6969"],"infoHash":"ec8b35c97190b7f8cdb7d6df000cd65e3d9cc0ba","infoHashBuffer":{"type":"Buffer","data":[236,139,53,201,113,144,183,248,205,183,214,223,0,12,214,94,61,156,192,186]},"announce":[],"urlList":[]}}